<mxfile host="app.diagrams.net" agent="Mozilla/5.0 (Macintosh; Intel Mac OS X 10.15; rv:144.0) Gecko/20100101 Firefox/144.0" version="28.2.8">
  <diagram name="Page-1" id="aK2uIc9bB4nhFkZQayfT">
    <mxGraphModel dx="1810" dy="985" grid="1" gridSize="10" guides="1" tooltips="1" connect="1" arrows="1" fold="1" page="1" pageScale="1" pageWidth="850" pageHeight="1100" math="0" shadow="0">
      <root>
        <mxCell id="0" />
        <mxCell id="1" parent="0" />
        <mxCell id="tvKToaYdQFjH6kMOGzoi-23" style="edgeStyle=orthogonalEdgeStyle;rounded=0;orthogonalLoop=1;jettySize=auto;html=1;exitX=0.13;exitY=0.77;exitDx=0;exitDy=0;exitPerimeter=0;entryX=0.25;entryY=0;entryDx=0;entryDy=0;" edge="1" parent="1" source="tvKToaYdQFjH6kMOGzoi-1" target="tvKToaYdQFjH6kMOGzoi-4">
          <mxGeometry relative="1" as="geometry">
            <mxPoint x="270" y="710" as="targetPoint" />
            <Array as="points">
              <mxPoint x="292" y="365" />
              <mxPoint x="240" y="365" />
              <mxPoint x="240" y="550" />
              <mxPoint x="280" y="550" />
              <mxPoint x="280" y="730" />
            </Array>
          </mxGeometry>
        </mxCell>
        <mxCell id="tvKToaYdQFjH6kMOGzoi-24" value="&lt;div&gt;EMAIL +&amp;nbsp;&lt;/div&gt;&lt;div&gt;SUB or UNSUB&lt;/div&gt;" style="edgeLabel;html=1;align=center;verticalAlign=middle;resizable=0;points=[];" vertex="1" connectable="0" parent="tvKToaYdQFjH6kMOGzoi-23">
          <mxGeometry x="-0.3064" relative="1" as="geometry">
            <mxPoint y="-16" as="offset" />
          </mxGeometry>
        </mxCell>
        <mxCell id="tvKToaYdQFjH6kMOGzoi-1" value="&lt;div&gt;CHEFS&lt;/div&gt;&lt;div&gt;SUBSCRIPTION&lt;/div&gt;&lt;div&gt;FORM&lt;/div&gt;" style="ellipse;shape=cloud;whiteSpace=wrap;html=1;" vertex="1" parent="1">
          <mxGeometry x="270" y="270" width="170" height="100" as="geometry" />
        </mxCell>
        <mxCell id="tvKToaYdQFjH6kMOGzoi-3" value="KEPLER / LSApp" style="swimlane;whiteSpace=wrap;html=1;" vertex="1" parent="1">
          <mxGeometry x="160" y="610" width="470" height="470" as="geometry" />
        </mxCell>
        <mxCell id="tvKToaYdQFjH6kMOGzoi-2" value="subscriptions.db" style="shape=cylinder3;whiteSpace=wrap;html=1;boundedLbl=1;backgroundOutline=1;size=15;" vertex="1" parent="tvKToaYdQFjH6kMOGzoi-3">
          <mxGeometry x="160" y="340" width="120" height="90" as="geometry" />
        </mxCell>
        <mxCell id="tvKToaYdQFjH6kMOGzoi-4" value="&lt;div&gt;Windows Task Scheduler&lt;/div&gt;&lt;div&gt;lsapp/newsletters/process_all_subscriptions.php&lt;/div&gt;&lt;div&gt;6am, 10am, 2pm, 6pm&lt;/div&gt;" style="shape=process;whiteSpace=wrap;html=1;backgroundOutline=1;" vertex="1" parent="tvKToaYdQFjH6kMOGzoi-3">
          <mxGeometry x="40" y="150" width="400" height="110" as="geometry" />
        </mxCell>
        <mxCell id="tvKToaYdQFjH6kMOGzoi-13" style="edgeStyle=orthogonalEdgeStyle;rounded=0;orthogonalLoop=1;jettySize=auto;html=1;entryX=0.5;entryY=0;entryDx=0;entryDy=0;entryPerimeter=0;" edge="1" parent="tvKToaYdQFjH6kMOGzoi-3" source="tvKToaYdQFjH6kMOGzoi-4" target="tvKToaYdQFjH6kMOGzoi-2">
          <mxGeometry relative="1" as="geometry" />
        </mxCell>
        <mxCell id="tvKToaYdQFjH6kMOGzoi-14" value="" style="edgeStyle=orthogonalEdgeStyle;rounded=0;orthogonalLoop=1;jettySize=auto;html=1;entryX=0.4;entryY=0.1;entryDx=0;entryDy=0;entryPerimeter=0;" edge="1" parent="1" source="tvKToaYdQFjH6kMOGzoi-5" target="tvKToaYdQFjH6kMOGzoi-1">
          <mxGeometry relative="1" as="geometry" />
        </mxCell>
        <mxCell id="tvKToaYdQFjH6kMOGzoi-17" value="IDIR Authentication" style="edgeLabel;html=1;align=center;verticalAlign=middle;resizable=0;points=[];" vertex="1" connectable="0" parent="tvKToaYdQFjH6kMOGzoi-14">
          <mxGeometry x="0.3636" y="3" relative="1" as="geometry">
            <mxPoint x="-77" as="offset" />
          </mxGeometry>
        </mxCell>
        <mxCell id="tvKToaYdQFjH6kMOGzoi-5" value="&lt;div&gt;Subscriber&lt;/div&gt;" style="shape=umlActor;verticalLabelPosition=bottom;verticalAlign=top;html=1;outlineConnect=0;" vertex="1" parent="1">
          <mxGeometry x="110" y="170" width="30" height="60" as="geometry" />
        </mxCell>
        <mxCell id="tvKToaYdQFjH6kMOGzoi-15" value="For example:&lt;div&gt;https://submit.digital.gov.bc.ca/app/form/submit?f=fd03b54b-84aa-4a05-b5ff-c5536b733f57&lt;/div&gt;" style="text;html=1;whiteSpace=wrap;strokeColor=none;fillColor=none;align=center;verticalAlign=middle;rounded=0;" vertex="1" parent="1">
          <mxGeometry x="355" y="230" width="380" height="60" as="geometry" />
        </mxCell>
        <mxCell id="tvKToaYdQFjH6kMOGzoi-21" style="edgeStyle=orthogonalEdgeStyle;rounded=0;orthogonalLoop=1;jettySize=auto;html=1;exitX=0.75;exitY=0;exitDx=0;exitDy=0;entryX=0.96;entryY=0.7;entryDx=0;entryDy=0;entryPerimeter=0;" edge="1" parent="1" source="tvKToaYdQFjH6kMOGzoi-4" target="tvKToaYdQFjH6kMOGzoi-1">
          <mxGeometry relative="1" as="geometry">
            <Array as="points">
              <mxPoint x="470" y="760" />
              <mxPoint x="470" y="550" />
              <mxPoint x="545" y="550" />
              <mxPoint x="545" y="340" />
            </Array>
          </mxGeometry>
        </mxCell>
        <mxCell id="tvKToaYdQFjH6kMOGzoi-22" value="&lt;div&gt;api_username&lt;/div&gt;&lt;div&gt;api_password&lt;/div&gt;&lt;div&gt;Both values aes256 encrypted using&lt;/div&gt;&lt;div&gt;CHEFS_ENCRYPTION_KEY environment variable&lt;/div&gt;" style="edgeLabel;html=1;align=center;verticalAlign=middle;resizable=0;points=[];" vertex="1" connectable="0" parent="tvKToaYdQFjH6kMOGzoi-21">
          <mxGeometry x="0.3989" y="-2" relative="1" as="geometry">
            <mxPoint y="23" as="offset" />
          </mxGeometry>
        </mxCell>
        <mxCell id="tvKToaYdQFjH6kMOGzoi-25" value="&lt;h1 style=&quot;margin-top: 0px;&quot;&gt;Kepler/LSApp Newsletter CHEFS Integration&lt;/h1&gt;&lt;p&gt;Mapping the LSApp script that imports email subscriber data from a set of CHEFS forms. LSApp tracks the form IDs and uses the CHEFS API to gather email addresses and subscribe/unsubscribe actions to form email subscriber lists.&amp;nbsp;&lt;/p&gt;" style="text;html=1;whiteSpace=wrap;overflow=hidden;rounded=0;" vertex="1" parent="1">
          <mxGeometry x="65" y="20" width="545" height="120" as="geometry" />
        </mxCell>
      </root>
    </mxGraphModel>
  </diagram>
</mxfile>
